<svg width="1920" height="151" viewBox="0 0 1920 151" fill="none" xmlns="http://www.w3.org/2000/svg">
<rect width="1920" height="151" fill="#34547A"/>
<path d="M415.875 65.5239H410.091L408.881 69H406.185L411.824 54.0703H414.152L419.802 69H417.095L415.875 65.5239ZM410.819 63.4321H415.146L412.983 57.2388L410.819 63.4321ZM430.168 69H427.677V64.519H423.36V69H420.868V57.9053H423.36V62.5298H427.677V57.9053H430.168V69ZM442.227 69H439.735V64.519H435.418V69H432.927V57.9053H435.418V62.5298H439.735V57.9053H442.227V69ZM451.517 69C451.408 68.7881 451.312 68.4429 451.23 67.9644C450.437 68.7915 449.466 69.2051 448.318 69.2051C447.204 69.2051 446.294 68.8872 445.59 68.2515C444.886 67.6157 444.534 66.8296 444.534 65.8931C444.534 64.7104 444.972 63.8047 445.847 63.1758C446.729 62.54 447.986 62.2222 449.62 62.2222H451.148V61.4941C451.148 60.9199 450.987 60.4619 450.666 60.1201C450.345 59.7715 449.856 59.5972 449.2 59.5972C448.632 59.5972 448.167 59.7407 447.805 60.0278C447.443 60.3081 447.262 60.667 447.262 61.1045H444.77C444.77 60.4961 444.972 59.9287 445.375 59.4023C445.778 58.8691 446.325 58.4521 447.016 58.1514C447.713 57.8506 448.489 57.7002 449.343 57.7002C450.642 57.7002 451.678 58.0283 452.45 58.6846C453.223 59.334 453.619 60.25 453.64 61.4326V66.4365C453.64 67.4346 453.78 68.231 454.06 68.8257V69H451.517ZM448.779 67.2056C449.271 67.2056 449.733 67.0859 450.164 66.8467C450.601 66.6074 450.929 66.2861 451.148 65.8828V63.791H449.805C448.882 63.791 448.188 63.9517 447.723 64.2729C447.258 64.5942 447.026 65.0488 447.026 65.6367C447.026 66.1152 447.183 66.498 447.498 66.7852C447.819 67.0654 448.246 67.2056 448.779 67.2056ZM470.077 65.5239H464.293L463.083 69H460.387L466.026 54.0703H468.354L474.004 69H471.297L470.077 65.5239ZM465.021 63.4321H469.349L467.185 57.2388L465.021 63.4321ZM484.371 69H481.879V64.519H477.562V69H475.07V57.9053H477.562V62.5298H481.879V57.9053H484.371V69ZM496.429 69H493.938V64.519H489.621V69H487.129V57.9053H489.621V62.5298H493.938V57.9053H496.429V69ZM505.719 69C505.61 68.7881 505.514 68.4429 505.432 67.9644C504.639 68.7915 503.668 69.2051 502.52 69.2051C501.406 69.2051 500.497 68.8872 499.792 68.2515C499.088 67.6157 498.736 66.8296 498.736 65.8931C498.736 64.7104 499.174 63.8047 500.049 63.1758C500.931 62.54 502.188 62.2222 503.822 62.2222H505.35V61.4941C505.35 60.9199 505.189 60.4619 504.868 60.1201C504.547 59.7715 504.058 59.5972 503.402 59.5972C502.834 59.5972 502.37 59.7407 502.007 60.0278C501.645 60.3081 501.464 60.667 501.464 61.1045H498.972C498.972 60.4961 499.174 59.9287 499.577 59.4023C499.98 58.8691 500.527 58.4521 501.218 58.1514C501.915 57.8506 502.691 57.7002 503.545 57.7002C504.844 57.7002 505.88 58.0283 506.652 58.6846C507.425 59.334 507.821 60.25 507.842 61.4326V66.4365C507.842 67.4346 507.982 68.231 508.262 68.8257V69H505.719ZM502.981 67.2056C503.474 67.2056 503.935 67.0859 504.366 66.8467C504.803 66.6074 505.131 66.2861 505.35 65.8828V63.791H504.007C503.084 63.791 502.39 63.9517 501.925 64.2729C501.46 64.5942 501.228 65.0488 501.228 65.6367C501.228 66.1152 501.385 66.498 501.7 66.7852C502.021 67.0654 502.448 67.2056 502.981 67.2056Z" fill="white"/>
<path d="M406.844 97.2485C406.844 96.2922 406.971 95.3739 407.225 94.4937C407.483 93.6134 407.866 92.8136 408.374 92.0942C408.882 91.3748 409.409 90.867 409.955 90.5708L410.196 91.3452C409.578 91.8192 409.07 92.5428 408.672 93.5161C408.279 94.4894 408.063 95.5791 408.025 96.7852L408.019 97.3247C408.019 98.9582 408.317 100.376 408.914 101.578C409.273 102.297 409.701 102.86 410.196 103.266L409.955 103.983C409.392 103.67 408.854 103.146 408.342 102.409C407.344 100.97 406.844 99.2502 406.844 97.2485ZM414.087 100.168C414.506 100.168 414.872 100.042 415.185 99.7876C415.498 99.5337 415.672 99.2163 415.706 98.8354H416.816C416.795 99.229 416.66 99.6035 416.41 99.959C416.16 100.314 415.826 100.598 415.407 100.81C414.993 101.021 414.552 101.127 414.087 101.127C413.152 101.127 412.407 100.816 411.853 100.194C411.302 99.5675 411.027 98.7127 411.027 97.6294V97.4326C411.027 96.764 411.15 96.1694 411.396 95.6489C411.641 95.1284 411.992 94.7243 412.449 94.4365C412.91 94.1488 413.454 94.0049 414.081 94.0049C414.851 94.0049 415.49 94.2355 415.998 94.6968C416.51 95.158 416.783 95.7568 416.816 96.4932H415.706C415.672 96.0488 415.502 95.6849 415.198 95.4014C414.897 95.1136 414.525 94.9697 414.081 94.9697C413.484 94.9697 413.021 95.1855 412.69 95.6172C412.365 96.0446 412.202 96.6646 412.202 97.4771V97.6992C412.202 98.4906 412.365 99.0999 412.69 99.5273C413.016 99.9548 413.482 100.168 414.087 100.168ZM420.847 97.312C420.847 98.2557 420.722 99.1613 420.473 100.029C420.227 100.892 419.848 101.69 419.336 102.422C418.829 103.154 418.295 103.674 417.737 103.983L417.489 103.266C418.141 102.767 418.664 101.992 419.057 100.943C419.455 99.8892 419.658 98.7212 419.667 97.439V97.2358C419.667 96.3472 419.573 95.522 419.387 94.7603C419.201 93.9943 418.941 93.3088 418.606 92.7036C418.276 92.0985 417.904 91.6266 417.489 91.2881L417.737 90.5708C418.295 90.8797 418.826 91.396 419.33 92.1196C419.838 92.8433 420.217 93.641 420.466 94.5127C420.72 95.3844 420.847 96.3175 420.847 97.312ZM431.816 101H425.76V100.156L428.959 96.6011C429.433 96.0636 429.759 95.6278 429.937 95.2935C430.119 94.9549 430.21 94.6058 430.21 94.2461C430.21 93.7637 430.064 93.368 429.772 93.0591C429.48 92.7502 429.091 92.5957 428.604 92.5957C428.02 92.5957 427.565 92.7629 427.239 93.0972C426.918 93.4272 426.757 93.8885 426.757 94.481H425.583C425.583 93.6304 425.855 92.9427 426.401 92.418C426.951 91.8932 427.686 91.6309 428.604 91.6309C429.463 91.6309 430.142 91.8573 430.642 92.3101C431.141 92.7586 431.391 93.3574 431.391 94.1064C431.391 95.0163 430.811 96.0996 429.651 97.3564L427.176 100.042H431.816V101ZM438.855 97.0581C438.855 98.4334 438.621 99.4554 438.151 100.124C437.681 100.793 436.947 101.127 435.948 101.127C434.962 101.127 434.232 100.801 433.758 100.149C433.284 99.4935 433.039 98.516 433.022 97.2168V95.6489C433.022 94.2905 433.257 93.2812 433.727 92.6211C434.196 91.9609 434.933 91.6309 435.936 91.6309C436.93 91.6309 437.662 91.9504 438.132 92.5894C438.602 93.2241 438.843 94.2059 438.855 95.5347V97.0581ZM437.681 95.4521C437.681 94.4577 437.542 93.734 437.262 93.2812C436.983 92.8242 436.541 92.5957 435.936 92.5957C435.335 92.5957 434.897 92.8221 434.622 93.2749C434.347 93.7277 434.205 94.4238 434.196 95.3633V97.2422C434.196 98.2409 434.34 98.9793 434.628 99.4575C434.92 99.9315 435.36 100.168 435.948 100.168C436.528 100.168 436.958 99.9442 437.237 99.4956C437.52 99.047 437.668 98.3403 437.681 97.3755V95.4521ZM444.219 101H443.039V93.1733L440.671 94.043V92.9766L444.035 91.7134H444.219V101ZM453.265 94.1699C453.265 94.6312 453.142 95.0417 452.896 95.4014C452.655 95.7611 452.327 96.0425 451.913 96.2456C452.395 96.453 452.776 96.7555 453.055 97.1533C453.339 97.5511 453.48 98.0018 453.48 98.5054C453.48 99.3052 453.21 99.9421 452.668 100.416C452.131 100.89 451.422 101.127 450.542 101.127C449.653 101.127 448.94 100.89 448.402 100.416C447.869 99.9378 447.603 99.3009 447.603 98.5054C447.603 98.006 447.738 97.5553 448.009 97.1533C448.284 96.7513 448.663 96.4466 449.145 96.2393C448.735 96.0361 448.411 95.7547 448.174 95.395C447.937 95.0353 447.818 94.627 447.818 94.1699C447.818 93.3913 448.068 92.7734 448.567 92.3164C449.067 91.8594 449.725 91.6309 450.542 91.6309C451.354 91.6309 452.01 91.8594 452.509 92.3164C453.013 92.7734 453.265 93.3913 453.265 94.1699ZM452.306 98.48C452.306 97.9637 452.141 97.5426 451.811 97.2168C451.485 96.891 451.058 96.728 450.529 96.728C450 96.728 449.575 96.8888 449.253 97.2104C448.936 97.5321 448.777 97.9552 448.777 98.48C448.777 99.0047 448.931 99.4173 449.24 99.7178C449.553 100.018 449.987 100.168 450.542 100.168C451.092 100.168 451.523 100.018 451.836 99.7178C452.15 99.4131 452.306 99.0005 452.306 98.48ZM450.542 92.5957C450.08 92.5957 449.706 92.7396 449.418 93.0273C449.134 93.3109 448.993 93.6981 448.993 94.189C448.993 94.6587 449.132 95.0396 449.412 95.3315C449.695 95.6193 450.072 95.7632 450.542 95.7632C451.011 95.7632 451.386 95.6193 451.665 95.3315C451.949 95.0396 452.09 94.6587 452.09 94.189C452.09 93.7192 451.944 93.3363 451.652 93.04C451.36 92.7438 450.99 92.5957 450.542 92.5957ZM455.105 100.384C455.105 100.181 455.165 100.012 455.283 99.8765C455.406 99.741 455.588 99.6733 455.829 99.6733C456.07 99.6733 456.252 99.741 456.375 99.8765C456.502 100.012 456.565 100.181 456.565 100.384C456.565 100.579 456.502 100.742 456.375 100.873C456.252 101.004 456.07 101.07 455.829 101.07C455.588 101.07 455.406 101.004 455.283 100.873C455.165 100.742 455.105 100.579 455.105 100.384ZM461.917 101V91.7578H464.938C465.941 91.7578 466.694 91.9652 467.198 92.3799C467.706 92.7946 467.959 93.4082 467.959 94.2207C467.959 94.6523 467.837 95.0353 467.591 95.3696C467.346 95.6997 467.012 95.9557 466.588 96.1377C467.088 96.2773 467.481 96.5439 467.769 96.9375C468.061 97.3268 468.207 97.7923 468.207 98.334C468.207 99.1634 467.938 99.8151 467.401 100.289C466.863 100.763 466.104 101 465.122 101H461.917ZM463.135 96.6772V100.003H465.147C465.715 100.003 466.161 99.8574 466.487 99.5654C466.817 99.2692 466.982 98.863 466.982 98.3467C466.982 97.2337 466.377 96.6772 465.167 96.6772H463.135ZM463.135 95.6997H464.976C465.509 95.6997 465.935 95.5664 466.252 95.2998C466.574 95.0332 466.734 94.6714 466.734 94.2144C466.734 93.7065 466.586 93.3384 466.29 93.1099C465.994 92.8771 465.543 92.7607 464.938 92.7607H463.135V95.6997ZM472.587 100.168C473.006 100.168 473.372 100.042 473.685 99.7876C473.998 99.5337 474.172 99.2163 474.206 98.8354H475.316C475.295 99.229 475.16 99.6035 474.91 99.959C474.66 100.314 474.326 100.598 473.907 100.81C473.493 101.021 473.052 101.127 472.587 101.127C471.652 101.127 470.907 100.816 470.353 100.194C469.802 99.5675 469.527 98.7127 469.527 97.6294V97.4326C469.527 96.764 469.65 96.1694 469.896 95.6489C470.141 95.1284 470.492 94.7243 470.949 94.4365C471.41 94.1488 471.954 94.0049 472.581 94.0049C473.351 94.0049 473.99 94.2355 474.498 94.6968C475.01 95.158 475.283 95.7568 475.316 96.4932H474.206C474.172 96.0488 474.002 95.6849 473.698 95.4014C473.397 95.1136 473.025 94.9697 472.581 94.9697C471.984 94.9697 471.521 95.1855 471.19 95.6172C470.865 96.0446 470.702 96.6646 470.702 97.4771V97.6992C470.702 98.4906 470.865 99.0999 471.19 99.5273C471.516 99.9548 471.982 100.168 472.587 100.168ZM479.487 101.127C478.556 101.127 477.798 100.822 477.214 100.213C476.63 99.5993 476.338 98.7804 476.338 97.7563V97.5405C476.338 96.8592 476.467 96.252 476.726 95.7188C476.988 95.1813 477.352 94.7624 477.817 94.4619C478.287 94.1572 478.795 94.0049 479.341 94.0049C480.234 94.0049 480.928 94.299 481.423 94.8872C481.918 95.4754 482.166 96.3175 482.166 97.4136V97.9023H477.513C477.53 98.5794 477.726 99.1274 478.103 99.5464C478.484 99.9611 478.966 100.168 479.55 100.168C479.965 100.168 480.316 100.084 480.604 99.9146C480.892 99.7453 481.144 99.521 481.359 99.2417L482.077 99.8003C481.501 100.685 480.638 101.127 479.487 101.127ZM479.341 94.9697C478.867 94.9697 478.469 95.1432 478.147 95.4902C477.826 95.833 477.627 96.3154 477.551 96.9375H480.991V96.8486C480.957 96.252 480.797 95.7907 480.509 95.4648C480.221 95.1348 479.832 94.9697 479.341 94.9697ZM492.373 101H491.198V95.103H488.037V101H486.856V94.1318H492.373V101ZM500.06 97.6421C500.06 98.6873 499.82 99.5295 499.342 100.168C498.864 100.807 498.217 101.127 497.4 101.127C496.566 101.127 495.91 100.862 495.432 100.333V103.641H494.258V94.1318H495.331L495.388 94.8936C495.866 94.3011 496.53 94.0049 497.381 94.0049C498.206 94.0049 498.858 94.3159 499.336 94.938C499.818 95.5601 500.06 96.4255 500.06 97.5342V97.6421ZM498.885 97.5088C498.885 96.7344 498.72 96.1229 498.39 95.6743C498.06 95.2257 497.607 95.0015 497.032 95.0015C496.321 95.0015 495.788 95.3167 495.432 95.9473V99.229C495.783 99.8553 496.321 100.168 497.044 100.168C497.607 100.168 498.054 99.9463 498.384 99.502C498.718 99.0534 498.885 98.389 498.885 97.5088ZM505.798 101C505.73 100.865 505.675 100.623 505.633 100.276C505.087 100.843 504.435 101.127 503.678 101.127C503.001 101.127 502.444 100.937 502.008 100.556C501.577 100.171 501.361 99.6839 501.361 99.0957C501.361 98.3805 501.632 97.8262 502.173 97.4326C502.719 97.0348 503.485 96.8359 504.471 96.8359H505.614V96.2964C505.614 95.8859 505.491 95.5601 505.246 95.3188C505 95.0734 504.638 94.9507 504.16 94.9507C503.741 94.9507 503.39 95.0565 503.106 95.2681C502.823 95.4797 502.681 95.7357 502.681 96.0361H501.5C501.5 95.6934 501.621 95.3633 501.862 95.0459C502.108 94.7243 502.438 94.4704 502.853 94.2842C503.271 94.098 503.731 94.0049 504.23 94.0049C505.021 94.0049 505.641 94.2038 506.09 94.6016C506.538 94.9951 506.771 95.5389 506.788 96.2329V99.394C506.788 100.025 506.868 100.526 507.029 100.898V101H505.798ZM503.849 100.105C504.217 100.105 504.566 100.01 504.896 99.8193C505.227 99.6289 505.466 99.3813 505.614 99.0767V97.6675H504.693C503.255 97.6675 502.535 98.0885 502.535 98.9307C502.535 99.2988 502.658 99.5866 502.903 99.7939C503.149 100.001 503.464 100.105 503.849 100.105ZM508.737 101V94.1318H511.416C512.33 94.1318 513.03 94.2926 513.517 94.6143C514.007 94.9316 514.253 95.3993 514.253 96.0171C514.253 96.3345 514.158 96.6222 513.967 96.8804C513.777 97.1343 513.495 97.3289 513.123 97.4644C513.538 97.5617 513.87 97.7521 514.12 98.0356C514.374 98.3192 514.5 98.6577 514.5 99.0513C514.5 99.6818 514.268 100.164 513.802 100.499C513.341 100.833 512.687 101 511.841 101H508.737ZM509.911 97.9849V100.054H511.854C512.344 100.054 512.71 99.9632 512.952 99.7812C513.197 99.5993 513.32 99.3433 513.32 99.0132C513.32 98.3276 512.816 97.9849 511.809 97.9849H509.911ZM509.911 97.0454H511.428C512.528 97.0454 513.079 96.7238 513.079 96.0806C513.079 95.4373 512.558 95.1051 511.517 95.084H509.911V97.0454ZM520.296 101C520.228 100.865 520.173 100.623 520.131 100.276C519.585 100.843 518.933 101.127 518.176 101.127C517.499 101.127 516.942 100.937 516.506 100.556C516.075 100.171 515.859 99.6839 515.859 99.0957C515.859 98.3805 516.13 97.8262 516.671 97.4326C517.217 97.0348 517.983 96.8359 518.969 96.8359H520.112V96.2964C520.112 95.8859 519.989 95.5601 519.744 95.3188C519.498 95.0734 519.136 94.9507 518.658 94.9507C518.239 94.9507 517.888 95.0565 517.604 95.2681C517.321 95.4797 517.179 95.7357 517.179 96.0361H515.999C515.999 95.6934 516.119 95.3633 516.36 95.0459C516.606 94.7243 516.936 94.4704 517.351 94.2842C517.77 94.098 518.229 94.0049 518.728 94.0049C519.519 94.0049 520.139 94.2038 520.588 94.6016C521.036 94.9951 521.269 95.5389 521.286 96.2329V99.394C521.286 100.025 521.367 100.526 521.527 100.898V101H520.296ZM518.347 100.105C518.715 100.105 519.064 100.01 519.395 99.8193C519.725 99.6289 519.964 99.3813 520.112 99.0767V97.6675H519.191C517.753 97.6675 517.033 98.0885 517.033 98.9307C517.033 99.2988 517.156 99.5866 517.401 99.7939C517.647 100.001 517.962 100.105 518.347 100.105ZM530.128 96.0107C530.128 95.6891 530.006 95.4352 529.76 95.249C529.515 95.0586 529.178 94.9634 528.751 94.9634C528.336 94.9634 527.989 95.0713 527.71 95.2871C527.435 95.5029 527.297 95.7568 527.297 96.0488H526.129C526.129 95.4521 526.379 94.9634 526.878 94.5825C527.378 94.2017 528.002 94.0112 528.751 94.0112C529.555 94.0112 530.181 94.1847 530.63 94.5317C531.078 94.8745 531.303 95.3654 531.303 96.0044C531.303 96.3133 531.21 96.5968 531.023 96.855C530.837 97.1131 530.573 97.3184 530.23 97.4707C531.03 97.7415 531.43 98.2747 531.43 99.0703C531.43 99.7008 531.186 100.2 530.7 100.568C530.213 100.937 529.563 101.121 528.751 101.121C527.96 101.121 527.306 100.928 526.79 100.543C526.278 100.154 526.021 99.6289 526.021 98.9688H527.189C527.189 99.3031 527.338 99.5908 527.634 99.832C527.934 100.069 528.307 100.188 528.751 100.188C529.2 100.188 529.561 100.084 529.836 99.8765C530.111 99.6691 530.249 99.4004 530.249 99.0703C530.249 98.6852 530.133 98.4102 529.9 98.2451C529.671 98.0758 529.314 97.9912 528.827 97.9912H527.653V97.001H528.929C529.729 96.9798 530.128 96.6497 530.128 96.0107ZM537.193 101C537.126 100.865 537.071 100.623 537.028 100.276C536.482 100.843 535.831 101.127 535.073 101.127C534.396 101.127 533.84 100.937 533.404 100.556C532.972 100.171 532.756 99.6839 532.756 99.0957C532.756 98.3805 533.027 97.8262 533.569 97.4326C534.115 97.0348 534.881 96.8359 535.867 96.8359H537.009V96.2964C537.009 95.8859 536.887 95.5601 536.641 95.3188C536.396 95.0734 536.034 94.9507 535.556 94.9507C535.137 94.9507 534.785 95.0565 534.502 95.2681C534.218 95.4797 534.077 95.7357 534.077 96.0361H532.896C532.896 95.6934 533.017 95.3633 533.258 95.0459C533.503 94.7243 533.833 94.4704 534.248 94.2842C534.667 94.098 535.126 94.0049 535.625 94.0049C536.417 94.0049 537.037 94.2038 537.485 94.6016C537.934 94.9951 538.167 95.5389 538.184 96.2329V99.394C538.184 100.025 538.264 100.526 538.425 100.898V101H537.193ZM535.245 100.105C535.613 100.105 535.962 100.01 536.292 99.8193C536.622 99.6289 536.861 99.3813 537.009 99.0767V97.6675H536.089C534.65 97.6675 533.931 98.0885 533.931 98.9307C533.931 99.2988 534.053 99.5866 534.299 99.7939C534.544 100.001 534.86 100.105 535.245 100.105ZM541.237 94.1318V100.042H543.75V94.1318H544.925V100.042H547.432V94.1318H548.613V100.042H549.578L549.463 103.038H548.41V101H540.056V94.1318H541.237ZM555.221 94.1318H556.395V101H555.221V95.9917L552.053 101H550.879V94.1318H552.053V99.1465L555.221 94.1318ZM559.493 94.1318V100.042H562.006V94.1318H563.181V100.042H565.688V94.1318H566.869V100.042H567.833L567.719 103.038H566.666V101H558.312V94.1318H559.493ZM571.959 101.127C571.028 101.127 570.271 100.822 569.687 100.213C569.103 99.5993 568.811 98.7804 568.811 97.7563V97.5405C568.811 96.8592 568.94 96.252 569.198 95.7188C569.461 95.1813 569.825 94.7624 570.29 94.4619C570.76 94.1572 571.268 94.0049 571.813 94.0049C572.706 94.0049 573.4 94.299 573.896 94.8872C574.391 95.4754 574.638 96.3175 574.638 97.4136V97.9023H569.985C570.002 98.5794 570.199 99.1274 570.576 99.5464C570.957 99.9611 571.439 100.168 572.023 100.168C572.438 100.168 572.789 100.084 573.077 99.9146C573.364 99.7453 573.616 99.521 573.832 99.2417L574.549 99.8003C573.974 100.685 573.111 101.127 571.959 101.127ZM571.813 94.9697C571.34 94.9697 570.942 95.1432 570.62 95.4902C570.299 95.833 570.1 96.3154 570.023 96.9375H573.464V96.8486C573.43 96.252 573.269 95.7907 572.981 95.4648C572.694 95.1348 572.304 94.9697 571.813 94.9697ZM581.614 101H580.44V98.0674H577.285V101H576.104V94.1318H577.285V97.1089H580.44V94.1318H581.614V101ZM584.788 96.4995H586.572C587.35 96.508 587.966 96.7111 588.419 97.1089C588.872 97.5067 589.098 98.0462 589.098 98.7275C589.098 99.4131 588.865 99.9632 588.4 100.378C587.934 100.793 587.308 101 586.521 101H583.614V94.1318H584.788V96.4995ZM591.548 101H590.368V94.1318H591.548V101ZM584.788 97.458V100.042H586.534C586.974 100.042 587.314 99.9294 587.556 99.7051C587.797 99.4766 587.917 99.1655 587.917 98.772C587.917 98.3911 587.799 98.0801 587.562 97.8389C587.329 97.5934 587.001 97.4665 586.578 97.458H584.788ZM593.624 100.384C593.624 100.181 593.683 100.012 593.802 99.8765C593.924 99.741 594.106 99.6733 594.348 99.6733C594.589 99.6733 594.771 99.741 594.894 99.8765C595.021 100.012 595.084 100.181 595.084 100.384C595.084 100.579 595.021 100.742 594.894 100.873C594.771 101.004 594.589 101.07 594.348 101.07C594.106 101.07 593.924 101.004 593.802 100.873C593.683 100.742 593.624 100.579 593.624 100.384Z" fill="white"/>
<g clip-path="url(#clip0)">
<path d="M1399.52 85.2C1399.47 85.0956 1399.42 85.009 1399.37 84.9396C1398.61 83.6897 1397.16 82.1555 1395.02 80.3366L1394.97 80.295L1394.95 80.2746L1394.93 80.2536H1394.91C1393.93 79.4067 1393.32 78.8372 1393.06 78.5456C1392.59 77.9902 1392.48 77.428 1392.74 76.8584C1392.92 76.428 1393.61 75.5191 1394.79 74.1305C1395.41 73.3945 1395.91 72.8047 1396.27 72.3603C1398.9 69.1668 1400.04 67.1261 1399.69 66.2374L1399.55 66.0297C1399.46 65.9047 1399.23 65.7903 1398.85 65.686C1398.47 65.5819 1397.98 65.5647 1397.39 65.634L1390.83 65.6755C1390.72 65.641 1390.57 65.6443 1390.37 65.686C1390.18 65.7277 1390.08 65.7486 1390.08 65.7486L1389.96 65.8008L1389.87 65.8635C1389.8 65.9049 1389.71 65.9778 1389.62 66.0819C1389.53 66.1857 1389.45 66.3075 1389.39 66.4464C1388.68 68.1264 1387.87 69.6883 1386.96 71.1322C1386.39 71.9932 1385.88 72.7393 1385.41 73.3711C1384.94 74.0027 1384.54 74.468 1384.22 74.7663C1383.9 75.0648 1383.62 75.304 1383.36 75.4847C1383.1 75.6655 1382.9 75.7418 1382.77 75.7139C1382.63 75.6859 1382.5 75.6582 1382.38 75.6305C1382.17 75.5055 1381.99 75.3354 1381.87 75.1203C1381.74 74.9051 1381.65 74.6342 1381.6 74.3079C1381.56 73.9814 1381.53 73.7006 1381.52 73.4645C1381.52 73.2286 1381.52 72.8951 1381.54 72.4647C1381.55 72.0341 1381.56 71.7428 1381.56 71.59C1381.56 71.0623 1381.57 70.4896 1381.59 69.8718C1381.61 69.2539 1381.63 68.7644 1381.65 68.4038C1381.66 68.0428 1381.67 67.6608 1381.67 67.2582C1381.67 66.8555 1381.64 66.5397 1381.59 66.3105C1381.54 66.0816 1381.46 65.8594 1381.35 65.644C1381.25 65.4289 1381.09 65.2624 1380.89 65.1442C1380.68 65.0262 1380.43 64.9325 1380.12 64.8629C1379.32 64.6964 1378.29 64.6063 1377.05 64.5923C1374.22 64.5646 1372.41 64.7314 1371.6 65.0924C1371.28 65.2449 1371 65.4533 1370.74 65.7169C1370.46 66.0225 1370.43 66.1892 1370.62 66.2167C1371.54 66.3415 1372.18 66.64 1372.56 67.1121L1372.7 67.3622C1372.8 67.5427 1372.91 67.8622 1373.02 68.3202C1373.12 68.7783 1373.19 69.2851 1373.22 69.8402C1373.3 70.8539 1373.3 71.7217 1373.22 72.4435C1373.14 73.1657 1373.07 73.7279 1373 74.1305C1372.94 74.5332 1372.83 74.8595 1372.7 75.1093C1372.56 75.3592 1372.47 75.512 1372.42 75.5674C1372.38 75.6229 1372.34 75.6578 1372.31 75.6715C1372.11 75.7407 1371.91 75.7759 1371.69 75.7759C1371.48 75.7759 1371.22 75.6786 1370.92 75.4841C1370.62 75.2896 1370.3 75.0225 1369.97 74.6823C1369.65 74.342 1369.28 73.8665 1368.87 73.2556C1368.46 72.6448 1368.03 71.9229 1367.59 71.0898L1367.23 70.4857C1367 70.097 1366.69 69.5311 1366.3 68.7885C1365.9 68.0455 1365.55 67.3269 1365.25 66.6327C1365.13 66.3411 1364.94 66.1191 1364.7 65.9664L1364.59 65.9037C1364.51 65.8483 1364.39 65.7894 1364.22 65.7267C1364.06 65.664 1363.88 65.6191 1363.7 65.5914L1357.46 65.6329C1356.82 65.6329 1356.39 65.765 1356.16 66.0288L1356.07 66.1536C1356.02 66.2232 1356 66.3342 1356 66.487C1356 66.6397 1356.05 66.8272 1356.14 67.0492C1357.05 69.007 1358.04 70.8952 1359.11 72.714C1360.18 74.5328 1361.11 75.9979 1361.9 77.108C1362.69 78.2189 1363.49 79.2673 1364.31 80.2528C1365.13 81.2387 1365.68 81.8704 1365.94 82.148C1366.21 82.4261 1366.42 82.634 1366.57 82.7728L1367.14 83.2725C1367.5 83.6058 1368.04 84.005 1368.74 84.47C1369.45 84.9353 1370.23 85.3934 1371.09 85.845C1371.95 86.2959 1372.95 86.6638 1374.09 86.9484C1375.23 87.2332 1376.33 87.3475 1377.41 87.2924H1380.03C1380.56 87.2504 1380.97 87.0977 1381.24 86.8341L1381.33 86.7297C1381.39 86.6468 1381.45 86.5181 1381.5 86.3448C1381.55 86.1713 1381.58 85.9801 1381.58 85.7721C1381.56 85.1752 1381.61 84.6373 1381.73 84.1583C1381.84 83.6795 1381.97 83.3185 1382.12 83.0754C1382.26 82.8324 1382.42 82.6275 1382.61 82.4613C1382.79 82.2948 1382.92 82.1939 1382.99 82.1592C1383.07 82.1242 1383.13 82.1005 1383.17 82.0863C1383.54 81.9753 1383.97 82.0828 1384.46 82.4094C1384.96 82.7356 1385.42 83.1385 1385.85 83.6173C1386.28 84.0966 1386.8 84.6343 1387.41 85.2312C1388.02 85.8283 1388.55 86.2722 1389.01 86.5642L1389.46 86.8141C1389.77 86.9808 1390.16 87.1336 1390.65 87.2724C1391.13 87.4111 1391.56 87.4459 1391.92 87.3765L1397.75 87.2933C1398.33 87.2933 1398.78 87.206 1399.1 87.0328C1399.42 86.8592 1399.61 86.668 1399.67 86.4601C1399.73 86.2519 1399.73 86.0157 1399.68 85.7516C1399.62 85.4882 1399.57 85.304 1399.52 85.2Z" fill="white"/>
</g>
<g clip-path="url(#clip1)">
<path d="M1465.14 85.2C1465.09 85.0956 1465.04 85.009 1464.99 84.9396C1464.24 83.6897 1462.79 82.1555 1460.64 80.3366L1460.6 80.295L1460.58 80.2746L1460.55 80.2536H1460.53C1459.56 79.4067 1458.94 78.8372 1458.69 78.5456C1458.21 77.9902 1458.11 77.428 1458.37 76.8584C1458.55 76.428 1459.23 75.5191 1460.42 74.1305C1461.04 73.3945 1461.53 72.8047 1461.9 72.3603C1464.52 69.1668 1465.66 67.1261 1465.31 66.2374L1465.18 66.0297C1465.09 65.9047 1464.85 65.7903 1464.47 65.686C1464.09 65.5819 1463.61 65.5647 1463.01 65.634L1456.45 65.6755C1456.35 65.641 1456.2 65.6443 1456 65.686C1455.8 65.7277 1455.7 65.7486 1455.7 65.7486L1455.59 65.8008L1455.5 65.8635C1455.42 65.9049 1455.34 65.9778 1455.25 66.0819C1455.16 66.1857 1455.08 66.3075 1455.02 66.4464C1454.3 68.1264 1453.49 69.6883 1452.58 71.1322C1452.02 71.9932 1451.5 72.7393 1451.03 73.3711C1450.56 74.0027 1450.17 74.468 1449.85 74.7663C1449.53 75.0648 1449.24 75.304 1448.98 75.4847C1448.72 75.6655 1448.53 75.7418 1448.39 75.7139C1448.25 75.6859 1448.12 75.6582 1448 75.6305C1447.79 75.5055 1447.62 75.3354 1447.49 75.1203C1447.36 74.9051 1447.27 74.6342 1447.23 74.3079C1447.18 73.9814 1447.16 73.7006 1447.15 73.4645C1447.14 73.2286 1447.14 72.8951 1447.16 72.4647C1447.18 72.0341 1447.18 71.7428 1447.18 71.59C1447.18 71.0623 1447.19 70.4896 1447.22 69.8718C1447.24 69.2539 1447.26 68.7644 1447.27 68.4038C1447.29 68.0428 1447.3 67.6608 1447.3 67.2582C1447.3 66.8555 1447.27 66.5397 1447.22 66.3105C1447.16 66.0816 1447.08 65.8594 1446.98 65.644C1446.87 65.4289 1446.72 65.2624 1446.51 65.1442C1446.31 65.0262 1446.05 64.9325 1445.75 64.8629C1444.94 64.6964 1443.92 64.6063 1442.67 64.5923C1439.85 64.5646 1438.03 64.7314 1437.23 65.0924C1436.91 65.2449 1436.62 65.4533 1436.36 65.7169C1436.09 66.0225 1436.05 66.1892 1436.25 66.2167C1437.16 66.3415 1437.81 66.64 1438.19 67.1121L1438.32 67.3622C1438.43 67.5427 1438.53 67.8622 1438.64 68.3202C1438.75 68.7783 1438.82 69.2851 1438.85 69.8402C1438.92 70.8539 1438.92 71.7217 1438.85 72.4435C1438.77 73.1657 1438.7 73.7279 1438.63 74.1305C1438.56 74.5332 1438.46 74.8595 1438.32 75.1093C1438.19 75.3592 1438.09 75.512 1438.05 75.5674C1438 75.6229 1437.96 75.6578 1437.93 75.6715C1437.74 75.7407 1437.53 75.7759 1437.32 75.7759C1437.11 75.7759 1436.85 75.6786 1436.55 75.4841C1436.24 75.2896 1435.93 75.0225 1435.6 74.6823C1435.27 74.342 1434.91 73.8665 1434.49 73.2556C1434.09 72.6448 1433.66 71.9229 1433.22 71.0898L1432.86 70.4857C1432.63 70.097 1432.32 69.5311 1431.92 68.7885C1431.53 68.0455 1431.18 67.3269 1430.87 66.6327C1430.75 66.3411 1430.57 66.1191 1430.33 65.9664L1430.21 65.9037C1430.14 65.8483 1430.02 65.7894 1429.85 65.7267C1429.68 65.664 1429.51 65.6191 1429.32 65.5914L1423.08 65.6329C1422.45 65.6329 1422.01 65.765 1421.78 66.0288L1421.69 66.1536C1421.65 66.2232 1421.62 66.3342 1421.62 66.487C1421.62 66.6397 1421.67 66.8272 1421.76 67.0492C1422.67 69.007 1423.66 70.8952 1424.73 72.714C1425.8 74.5328 1426.74 75.9979 1427.52 77.108C1428.31 78.2189 1429.12 79.2673 1429.94 80.2528C1430.76 81.2387 1431.3 81.8704 1431.57 82.148C1431.83 82.4261 1432.04 82.634 1432.19 82.7728L1432.76 83.2725C1433.13 83.6058 1433.66 84.005 1434.37 84.47C1435.08 84.9353 1435.86 85.3934 1436.72 85.845C1437.57 86.2959 1438.57 86.6638 1439.71 86.9484C1440.85 87.2332 1441.96 87.3475 1443.04 87.2924H1445.66C1446.19 87.2504 1446.59 87.0977 1446.86 86.8341L1446.95 86.7297C1447.02 86.6468 1447.07 86.5181 1447.13 86.3448C1447.18 86.1713 1447.21 85.9801 1447.21 85.7721C1447.19 85.1752 1447.24 84.6373 1447.35 84.1583C1447.47 83.6795 1447.6 83.3185 1447.74 83.0754C1447.89 82.8324 1448.05 82.6275 1448.23 82.4613C1448.41 82.2948 1448.54 82.1939 1448.62 82.1592C1448.69 82.1242 1448.75 82.1005 1448.8 82.0863C1449.16 81.9753 1449.59 82.0828 1450.09 82.4094C1450.58 82.7356 1451.04 83.1385 1451.48 83.6173C1451.91 84.0966 1452.43 84.6343 1453.04 85.2312C1453.64 85.8283 1454.18 86.2722 1454.63 86.5642L1455.09 86.8141C1455.39 86.9808 1455.79 87.1336 1456.27 87.2724C1456.76 87.4111 1457.18 87.4459 1457.55 87.3765L1463.38 87.2933C1463.96 87.2933 1464.4 87.206 1464.72 87.0328C1465.04 86.8592 1465.23 86.668 1465.29 86.4601C1465.35 86.2519 1465.36 86.0157 1465.3 85.7516C1465.25 85.4882 1465.2 85.304 1465.14 85.2Z" fill="white"/>
</g>
<g clip-path="url(#clip2)">
<path d="M1530.77 85.2C1530.72 85.0956 1530.67 85.009 1530.62 84.9396C1529.86 83.6897 1528.41 82.1555 1526.27 80.3366L1526.22 80.295L1526.2 80.2746L1526.18 80.2536H1526.16C1525.18 79.4067 1524.57 78.8372 1524.31 78.5456C1523.84 77.9902 1523.73 77.428 1523.99 76.8584C1524.17 76.428 1524.86 75.5191 1526.04 74.1305C1526.66 73.3945 1527.16 72.8047 1527.52 72.3603C1530.15 69.1668 1531.29 67.1261 1530.94 66.2374L1530.8 66.0297C1530.71 65.9047 1530.48 65.7903 1530.1 65.686C1529.72 65.5819 1529.23 65.5647 1528.64 65.634L1522.08 65.6755C1521.97 65.641 1521.82 65.6443 1521.62 65.686C1521.43 65.7277 1521.33 65.7486 1521.33 65.7486L1521.21 65.8008L1521.12 65.8635C1521.05 65.9049 1520.96 65.9778 1520.87 66.0819C1520.78 66.1857 1520.7 66.3075 1520.64 66.4464C1519.93 68.1264 1519.12 69.6883 1518.21 71.1322C1517.64 71.9932 1517.13 72.7393 1516.66 73.3711C1516.19 74.0027 1515.79 74.468 1515.47 74.7663C1515.15 75.0648 1514.87 75.304 1514.61 75.4847C1514.35 75.6655 1514.15 75.7418 1514.02 75.7139C1513.88 75.6859 1513.75 75.6582 1513.63 75.6305C1513.42 75.5055 1513.24 75.3354 1513.12 75.1203C1512.99 74.9051 1512.9 74.6342 1512.85 74.3079C1512.81 73.9814 1512.78 73.7006 1512.77 73.4645C1512.77 73.2286 1512.77 72.8951 1512.79 72.4647C1512.8 72.0341 1512.81 71.7428 1512.81 71.59C1512.81 71.0623 1512.82 70.4896 1512.84 69.8718C1512.86 69.2539 1512.88 68.7644 1512.9 68.4038C1512.91 68.0428 1512.92 67.6608 1512.92 67.2582C1512.92 66.8555 1512.89 66.5397 1512.84 66.3105C1512.79 66.0816 1512.71 65.8594 1512.6 65.644C1512.5 65.4289 1512.34 65.2624 1512.14 65.1442C1511.93 65.0262 1511.68 64.9325 1511.37 64.8629C1510.57 64.6964 1509.54 64.6063 1508.3 64.5923C1505.47 64.5646 1503.66 64.7314 1502.85 65.0924C1502.53 65.2449 1502.25 65.4533 1501.99 65.7169C1501.71 66.0225 1501.68 66.1892 1501.87 66.2167C1502.79 66.3415 1503.43 66.64 1503.81 67.1121L1503.95 67.3622C1504.05 67.5427 1504.16 67.8622 1504.27 68.3202C1504.37 68.7783 1504.44 69.2851 1504.47 69.8402C1504.55 70.8539 1504.55 71.7217 1504.47 72.4435C1504.39 73.1657 1504.32 73.7279 1504.25 74.1305C1504.19 74.5332 1504.08 74.8595 1503.95 75.1093C1503.81 75.3592 1503.72 75.512 1503.67 75.5674C1503.63 75.6229 1503.59 75.6578 1503.56 75.6715C1503.36 75.7407 1503.16 75.7759 1502.94 75.7759C1502.73 75.7759 1502.47 75.6786 1502.17 75.4841C1501.87 75.2896 1501.55 75.0225 1501.22 74.6823C1500.9 74.342 1500.53 73.8665 1500.12 73.2556C1499.71 72.6448 1499.28 71.9229 1498.84 71.0898L1498.48 70.4857C1498.25 70.097 1497.94 69.5311 1497.55 68.7885C1497.15 68.0455 1496.8 67.3269 1496.5 66.6327C1496.38 66.3411 1496.19 66.1191 1495.95 65.9664L1495.84 65.9037C1495.76 65.8483 1495.64 65.7894 1495.47 65.7267C1495.31 65.664 1495.13 65.6191 1494.95 65.5914L1488.71 65.6329C1488.07 65.6329 1487.64 65.765 1487.41 66.0288L1487.32 66.1536C1487.27 66.2232 1487.25 66.3342 1487.25 66.487C1487.25 66.6397 1487.3 66.8272 1487.39 67.0492C1488.3 69.007 1489.29 70.8952 1490.36 72.714C1491.43 74.5328 1492.36 75.9979 1493.15 77.108C1493.94 78.2189 1494.74 79.2673 1495.56 80.2528C1496.38 81.2387 1496.93 81.8704 1497.19 82.148C1497.46 82.4261 1497.67 82.634 1497.82 82.7728L1498.39 83.2725C1498.75 83.6058 1499.29 84.005 1499.99 84.47C1500.7 84.9353 1501.48 85.3934 1502.34 85.845C1503.2 86.2959 1504.2 86.6638 1505.34 86.9484C1506.48 87.2332 1507.58 87.3475 1508.66 87.2924H1511.28C1511.81 87.2504 1512.22 87.0977 1512.49 86.8341L1512.58 86.7297C1512.64 86.6468 1512.7 86.5181 1512.75 86.3448C1512.8 86.1713 1512.83 85.9801 1512.83 85.7721C1512.81 85.1752 1512.86 84.6373 1512.98 84.1583C1513.09 83.6795 1513.22 83.3185 1513.37 83.0754C1513.51 82.8324 1513.67 82.6275 1513.86 82.4613C1514.04 82.2948 1514.17 82.1939 1514.24 82.1592C1514.32 82.1242 1514.38 82.1005 1514.42 82.0863C1514.79 81.9753 1515.22 82.0828 1515.71 82.4094C1516.21 82.7356 1516.67 83.1385 1517.1 83.6173C1517.53 84.0966 1518.05 84.6343 1518.66 85.2312C1519.27 85.8283 1519.8 86.2722 1520.26 86.5642L1520.71 86.8141C1521.02 86.9808 1521.41 87.1336 1521.9 87.2724C1522.38 87.4111 1522.81 87.4459 1523.17 87.3765L1529 87.2933C1529.58 87.2933 1530.03 87.206 1530.35 87.0328C1530.67 86.8592 1530.86 86.668 1530.92 86.4601C1530.98 86.2519 1530.98 86.0157 1530.93 85.7516C1530.87 85.4882 1530.82 85.304 1530.77 85.2Z" fill="white"/>
</g>
<defs>
<clipPath id="clip0">
<rect width="43.75" height="40" fill="white" transform="translate(1356 56)"/>
</clipPath>
<clipPath id="clip1">
<rect width="43.75" height="40" fill="white" transform="translate(1421.62 56)"/>
</clipPath>
<clipPath id="clip2">
<rect width="43.75" height="40" fill="white" transform="translate(1487.25 56)"/>
</clipPath>
</defs>
</svg>
